<svg xmlns="http://www.w3.org/2000/svg" width="724.598" height="80.728"><path fill="#fff" d="M0 0h724.598v80.728H0z"/><path d="M8.05 8.44c46.18.64 93.89 2.48 126.83 2.4M9.79 9.21c37.28-.53 72.79.88 126.07 1.4m-2.06-.45c1.58 10.1 2.59 23.73.39 56.25m-.15-57.21c.9 21.72 1.47 43.86 1.74 56.49m-.87-1.58c-44.53-.58-88.39 2.03-123.2-.05m124.25 2.37c-41.35-1.17-79.9-1.62-126.78-.11m-.37.9c1.51-21.55.52-44.54 2.87-55.45m-1.16 54.37c-.37-20.53.08-41.37 0-55.54" stroke="#000" fill="none" stroke-linecap="round"/><text x="56" y="10" font-family="Virgil, Segoe UI Emoji" font-size="11.523" text-anchor="middle" style="white-space:pre" transform="translate(16.5 31)">Compile Stylesheets</text><path d="M201.91 15.49c38.95.11 74.53-2.08 119.93-1.55m-119.52.9c24.62.01 50.43-1.44 121.8-.22m-2.33 1.8c1.13 17.17 3.72 36.53.5 48.76m1.28-50.72c.51 10.32.85 21.59-.4 50.88m.54 1.9c-39.23-3.23-82.48-3.4-120.76-3.4M324.68 65c-45.95 1.63-90.61 1.27-123.38-.32m1.58 2.68c-2.58-15.18-.39-32.8-3.11-53.22m1.94 50.67c-.19-18.67-.07-39.44-.01-49.42" stroke="#000" fill="none" stroke-linecap="round"/><text x="56" y="13" font-family="Virgil, Segoe UI Emoji" font-size="14.614" text-anchor="middle" style="white-space:pre" transform="translate(206.566 30.913)">Minimize Assets</text><path d="M393.75 13.89c34.12-1.17 72.08.04 122.46.55m-122.85-.65c37.32 1.09 74.01.11 121.82-1.18m-.62.02c2.78 16.49 1.69 29.15 1.04 50.63m1.16-49.49c-.29 18.12-.89 37.81-.16 50.88m-.46-1.32c-45.57.16-90.15-1.31-123.43 1.85m123.8-1.56c-34.27 1.35-67.94 2.44-123.51.21m.51.95c-.49-18.21-1.96-34.37-.12-51.25m.94 50.21c-1.55-13.79-.88-26.42-.67-49.62" stroke="#000" fill="none" stroke-linecap="round"/><text x="56.5" y="12" font-family="Virgil, Segoe UI Emoji" font-size="13.198" text-anchor="middle" style="white-space:pre" transform="translate(398.266 30.514)">Compile Markdown</text><path d="M591.157 19.75c37.4 1.49 75.05 1.88 123.56-.12m-121.68.9c30.15-2.15 62.06-1.07 122.22-1.41m-2.06-.89c2.87 14.81 2.9 27.48 2.45 53.15m-1.88-52.14c.59 16.72 1.31 32.51.1 51.69m2.21.07c-29.64-.73-55.35-.28-122.22.54m120.19-.29c-23.99-.64-49.98-.22-121.53.05m.01-2.26c.51-9.32-.62-22.92-1.78-50.08m1.18 51.64c-.38-20.12-.44-40.24.97-49.95" stroke="#000" fill="none" stroke-linecap="round"/><text x="56.5" y="11" font-family="Virgil, Segoe UI Emoji" font-size="12.601" text-anchor="middle" style="white-space:pre" transform="translate(596.913 37.234)">Render Templates</text><g stroke-linecap="round" stroke="#000" fill="none"><path d="M150.082 36.374c2.7.17 10.79.67 16.19 1.01 5.39.34 13.48.84 16.18 1.01m-32.37-2.02c2.7.17 10.79.67 16.19 1.01 5.39.34 13.48.84 16.18 1.01m-7.78 2.3c1.74-.52 3.47-1.03 7.78-2.3m-7.78 2.3c1.82-.54 3.63-1.07 7.78-2.3"/><path d="M175.022 35.154c1.66.72 3.32 1.45 7.43 3.24m-7.43-3.24c1.73.76 3.46 1.51 7.43 3.24"/></g><g stroke-linecap="round" stroke="#000" fill="none"><path d="M344.98 40.758c2.7.17 10.79.67 16.19 1.01 5.39.34 13.48.84 16.18 1.01m-32.37-2.02c2.7.17 10.79.67 16.19 1.01 5.39.34 13.48.84 16.18 1.01m-7.78 2.3c1.65-.49 3.3-.98 7.78-2.3m-7.78 2.3c2.26-.67 4.51-1.33 7.78-2.3"/><path d="M369.92 39.538c1.57.69 3.15 1.37 7.43 3.24m-7.43-3.24c2.15.94 4.31 1.88 7.43 3.24"/></g><g stroke-linecap="round" stroke="#000" fill="none"><path d="M537.855 40.084c2.7.17 10.79.67 16.19 1.01 5.39.34 13.48.84 16.18 1.01m-32.37-2.02c2.7.17 10.79.67 16.19 1.01 5.39.34 13.48.84 16.18 1.01m-7.78 2.3c1.73-.51 3.45-1.02 7.78-2.3m-7.78 2.3c1.71-.51 3.42-1.01 7.78-2.3"/><path d="m562.795 38.864 7.43 3.24m-7.43-3.24c1.63.71 3.27 1.43 7.43 3.24"/></g></svg>