<svg xmlns="http://www.w3.org/2000/svg" width="474" height="404"><path fill="#fff" d="M0 0h474v404H0z"/><text y="18" font-family="Virgil, Segoe UI Emoji" font-size="20" style="white-space:pre" transform="translate(11 10)">right, so</text><text y="44" font-family="Virgil, Segoe UI Emoji" font-size="20" style="white-space:pre" transform="translate(11 10)">this is a pretty neat</text><text y="70" font-family="Virgil, Segoe UI Emoji" font-size="20" style="white-space:pre" transform="translate(11 10)">illustration</text><path d="M10.38 94.1c59.05-.15 116.7-1.74 230.82-.17m-231.11-.59c76.99-2.38 153.56-1.22 230.52-1.01m1.46 1.12c-2.08 64.75-2.66 127.29-1.84 268.02m1.38-268.12c-1.88 70.57-2.36 141.61-1.35 270.4m-.51.76c-62.05-3.62-122.73-3.69-228.72-1.78m229.52.59c-59.05.66-119.8.28-230.84.28m.79-2c.2-78.65.18-157.72-.38-269.48m-.56 271.49c-.59-81.88-.51-161.85-.19-270.96" stroke="#000" fill="none" stroke-linecap="round"/><path d="M66.13 116.83c-.61-.87-2.74-41.5-3.2-4.78-.46 36.71.12 183.71.46 225.04.33 41.33 1.16 19.1 1.54 22.95m-.2-244.34c-.73-.78-1.94-39.75-2.26-2.62-.32 37.13 0 184.03.35 225.38.36 41.35.98 19 1.79 22.7m54.107-247.259c-.91-.95-3.57-40.94-4.24-3.97-.66 36.98-.28 184.55.24 225.83.52 41.29 2.13 18.15 2.9 21.88m-.39-241.53c-1.19-.89-3.82-41.34-3.84-5.03-.03 36.31 3.03 181.64 3.67 222.91.65 41.28.01 20.6.2 24.74m46.6-244.64c-.81-.84-4.75-41.34-5.23-4.52-.48 36.82 1.49 183.9 2.33 225.45.84 41.54 2.32 19.85 2.72 23.82m-1.23-242.45c-.44-.71-1.35-42.55-1.71-5.86-.36 36.69-.97 184.92-.45 225.98.53 41.06 2.75 17.1 3.6 20.38m44.82-241.26c-.7-.55-3.91-40.68-4.63-4.07-.73 36.6-.41 182.82.3 223.69.7 40.87 3.31 17.64 3.94 21.52m-.57-241.68c-.87-.9-3.74-41.55-4.46-5.19-.73 36.35-.82 182.06.11 223.31.93 41.25 4.87 19.82 5.46 24.18M386.99 91.31c19.34 13.01 35.98 27.38 60.91 44.82m-60.7-45.44c12.83 9.93 25.98 19.95 59.53 44.61m-1.29.01c-21.03 17.49-44.48 36.31-59.68 44.45m60.12-43.87c-17.59 11.26-33.17 25-58.92 44.67m.06-1.34c-16.69-15.06-37.37-27.31-58.5-42.74m58.55 44.21c-14.38-12.4-28.64-22.8-60.71-44.04m.72.82c14.68-12.46 26.21-23.89 59.91-46.99m-60.26 45.82c22.2-17.26 42.83-32.71 60.88-45.58" stroke="#000" fill="none" stroke-linecap="round"/><g stroke-linecap="round" stroke="#000" fill="none"><path d="M256.86 134.07c6.53.57 31.18 3.71 37.67 4.86m-38.67-2.73c6.38.63 30.87 3.22 37.48 3.7m-20.53 4.25c4.43.77 12.42-2.18 20.87-2.44m-18.67 3.82c5.76-1.43 10.47-4.32 18.5-4.96"/><path d="M274.03 130.76c4.19 4.08 11.88 4.43 19.65 10.95m-17.45-9.58c5.35 2.72 9.68 3.95 17.28 8.44"/></g><g stroke-linecap="round" stroke="#000" fill="none"><path d="M381.99 206.15c1.23 10.25 5.72 50.98 6.9 61.22m-8.36-61.67c1.09 10.34 6.05 52.38 7.36 62.88"/><path d="M376.24 241.64c.77 7.31 4.66 14.25 11.6 27.09m-13.21-27.4c5.1 10.27 10.52 19.88 13.72 26.46"/><path d="M396.62 239.18c-4.54 7.95-5.98 15.54-8.78 29.55m7.16-29.85c-2.6 11.18-4.88 21.72-6.65 28.91"/></g><path d="M414.16 294.86c9.53.92 19.3 4.48 26.72 9.65 7.42 5.16 14.03 13.9 17.8 21.35 3.77 7.46 5.86 15.65 4.84 23.38-1.02 7.73-5.39 16.41-10.97 23.01-5.59 6.6-13.69 13.08-22.53 16.58-8.85 3.49-20.59 4.43-30.56 4.39-9.97-.03-20.42-1.1-29.26-4.6-8.84-3.49-17.97-10.08-23.76-16.38a45.07 45.07 0 0 1-10.98-21.42c-1.57-7.62-1.62-16.75 1.59-24.27 3.2-7.52 10.07-15.44 17.61-20.83 7.55-5.4 17.49-9.69 27.66-11.54 10.17-1.85 27.3-.06 33.37.44 6.08.51 3.22 1.7 3.08 2.6m-47.86.34c8.38-4.03 20.27-6.06 30.09-5.56 9.82.51 20.22 4.82 28.85 8.59 8.63 3.76 17.14 7.79 22.94 14.02 5.79 6.23 10.79 15.19 11.82 23.35 1.03 8.17-1.64 18.34-5.65 25.66-4.01 7.31-10.93 13.32-18.43 18.24-7.5 4.92-16.9 9.57-26.55 11.29-9.64 1.73-21.37 1.23-31.31-.93-9.95-2.17-20.59-6.61-28.35-12.04-7.77-5.43-14.9-13.29-18.24-20.57-3.33-7.28-3.64-15.56-1.78-23.14 1.86-7.57 7.13-15.87 12.95-22.32 5.82-6.46 18.19-14.05 21.97-16.42 3.77-2.36-.04 1.17.68 2.23" stroke="#000" fill="none" stroke-linecap="round"/><path d="m379.58 113.36.31 1.13q.3 1.15.56 3.04.27 1.89.74 2.93.48 1.03.62 2.25t.7 3.06q.55 1.84.62 3.1.07 1.25.09 2.71.03 1.45.4 3.11t1.63 1.81q1.25.14 2.47.62 1.22.47 2.34.85 1.12.38 3.01 1.29 1.89.91 2.81 1.58.92.66 1.9 1.34.97.67 1.7 1.46.73.79 2.09 2.15 1.36 1.35 1.6 2.83t-.24 3.4q-.48 1.93-1.52 3.28-1.05 1.35-2.73 2.52-1.68 1.18-2.76 1.79-1.08.61-2.5 1.04-1.42.44-3.44.95-2.01.5-3.15.57-1.13.06-2.65.47-1.52.42-2.88.54-1.36.13-3-.1-1.63-.24-2.81-.72-1.19-.48-2.56-1.7-1.38-1.22-2.15-1.97t-1.94-1.51q-1.17-.76-2.41-2.37-1.25-1.6-2.04-2.1-.78-.5-1.26-.8-.48-.31-.83-.76-.36-.44-.55-.97-.19-.54-.21-1.11-.01-.56.16-1.11.17-.54.5-1 .33-.46.8-.79.46-.33 1-.49.55-.16 1.11-.15.57.02 1.1.22.54.2.98.55.44.36.74.84t.44 1.03q.13.55.09 1.12-.05.57-.28 1.09-.23.52-.61.94-.38.42-.87.7-.5.27-1.06.38-.55.1-1.12.02-.56-.07-1.07-.33-.5-.25-.9-.66-.4-.4-.65-.91t-.33-1.07q-.07-.57.04-1.12.11-.56.39-1.05.28-.5.7-.87.43-.38.95-.6.52-.22 1.09-.27.57-.04 1.12.1l.55.14q-.01 0 2.4 2.23 2.41 2.23 3.3 2.99.88.76 2.09 2.13 1.2 1.36 2.3 2.06 1.09.71 2.11 1.06 1.03.36 2.44.24 1.42-.11 2.79-.52 1.37-.41 2.83-.55 1.46-.15 2.63-.61 1.17-.47 2.26-.99 1.09-.53 2.43-1.28 1.33-.75 2.49-1.44 1.16-.68.15-1.65-1.01-.97-2.36-1.79-1.35-.82-2.68-1.69-1.33-.86-2.74-1.34-1.42-.48-3.06-.89-1.64-.4-2.91-.53-1.27-.13-2.26-.52-.99-.39-1.96-2.36-.97-1.97-1.08-3.09-.11-1.13-.47-3.28-.34-2.15-.33-3.46.01-1.31.06-2.51.05-1.21-.41-2.33-.45-1.12-.48-2.29-.03-1.17-.42-2.33-.4-1.15-.48-2.62-.09-1.47-.36-2.62-.27-1.16-.31-1.48-.04-.32-.01-.63.04-.32.15-.62.12-.3.3-.56.18-.27.42-.48.24-.22.53-.37.28-.15.59-.23.31-.07.64-.08.31 0 .62.08t.6.22q.28.15.53.37.24.21.42.47.18.27.3.57l.11.3Z"/><path d="m379.69 107.57 1.97.72q1.97.71 3.49 1.26 1.52.54 3.1.69 1.59.15 2.85.49 1.25.35 2.74.39 1.49.04 3.33.03 1.84-.02 2.29.06.46.08.87.3.4.21.72.55.32.34.51.76t.24.88q.05.46-.05.91t-.34.85q-.24.4-.6.69-.35.3-.78.47-.43.17-.89.19-.47.03-.91-.1-.45-.12-.83-.39-.38-.26-.66-.63t-.42-.8q-.15-.44-.15-.91 0-.46.15-.9.15-.43.43-.8.29-.37.67-.63.38-.26.83-.38.45-.12.91-.09.46.02.89.2.43.17.78.47.35.3.59.7.24.4.33.85.1.45.05.91t-.25.88q-.19.42-.51.75-.32.34-.73.55-.41.22-.87.29l-.46.08-1.95-.05q-1.96-.05-3.28-.24-1.31-.18-2.87-.72-1.56-.53-3.67-1.03t-3.46-1.01q-1.34-.51-3.4-.95-2.04-.43-2.32-.55-.28-.12-.53-.3-.24-.18-.44-.42-.19-.23-.32-.51-.13-.27-.2-.57-.06-.3-.05-.6.01-.3.1-.6.08-.29.23-.55.16-.27.37-.49.21-.22.46-.38.26-.17.55-.27.29-.09.59-.12.3-.02.6.02l.3.05Zm-.71 220.21.19 2.59q.2 2.6.26 4.9.06 2.31.07 4.44.01 2.13.01 4.18t.53 4.19q.53 2.14.83 4.06.3 1.92.47 3.61.18 1.69.83 3.59.65 1.9.88 3.27.23 1.38.74 2.47.5 1.08.58 1.47.07.39.01.78-.05.39-.23.75-.18.35-.46.63t-.64.45q-.35.17-.74.23-.39.05-.78-.03t-.73-.27q-.35-.2-.61-.49-.26-.3-.41-.66-.16-.37-.19-.76-.03-.4.07-.78t.31-.71q.22-.34.52-.58.31-.25.69-.38.37-.14.76-.15.4 0 .78.11.37.12.69.35.32.24.55.56.23.32.34.7.12.38.1.77-.01.4-.15.77-.13.37-.38.68-.25.3-.59.51-.33.21-.72.31-.38.09-.77.06-.4-.04-.76-.2-.36-.15-.66-.42-.29-.26-.48-.61t-.19-.34l-.5-2.35q-.49-2.35-.49-3.85.01-1.5-.27-2.72-.28-1.23-.32-2.83-.04-1.6-.23-3.37-.2-1.76-.84-4.24-.63-2.47-.67-4.51-.04-2.04-.14-4.12-.09-2.08-.28-4.27-.18-2.2-.56-4.78-.38-2.57-.37-2.81 0-.24.06-.47.06-.23.17-.44.12-.21.28-.39.16-.18.36-.32.2-.13.42-.21.23-.09.47-.11.23-.03.46 0 .24.03.47.12.22.09.42.23.19.14.35.32.16.18.27.39.11.22.16.45l.06.23Zm35.08.46-.89 1.41q-.89 1.42-1.87 3.54-.98 2.13-1.68 3.72-.71 1.6-1.25 2.87-.55 1.27-.68 2.42-.14 1.14-.55 2.3-.41 1.15-.45 2.29-.03 1.15.02 2.29.04 1.14.89 2.59t2.2 2.17q1.34.72 2.86 1.28 1.52.56 3.25.65 1.73.1 3.64.12 1.9.03 2.87-.54.96-.57 2.59-2.49 1.64-1.93 2.16-4.07.52-2.14.56-3.89.05-1.74.06-3.33v-3.38q0-1.8-.01-3.34-.01-1.53-.68-3.1-.68-1.57-1.82-1.96-1.14-.38-2.24-.91-1.1-.52-2.55-1.29-1.44-.76-1.84-1.15-.4-.38-.66-.87-.25-.5-.34-1.05-.08-.54.01-1.09.1-.55.36-1.03.26-.49.67-.87.4-.38.91-.61.51-.23 1.06-.28.55-.06 1.09.07.54.12 1.01.41.48.29.83.72.36.42.56.94.2.52.22 1.07.03.55-.12 1.09-.16.53-.47.99-.32.45-.76.79-.44.32-.97.49-.53.17-1.08.17-.56-.01-1.08-.19-.53-.18-.96-.51-.44-.34-.75-.8t-.45-1q-.15-.53-.11-1.09.03-.55.24-1.06.21-.52.58-.94.36-.42.84-.7.47-.28 1.02-.39.54-.12 1.09-.05.55.06 1.05.3l.5.23 1.89.92q1.89.91 3.01 1.53 1.12.62 1.94 1.46.81.83 1.71 2.06.89 1.24 1.44 2.26.55 1.02.92 2.43.37 1.4.36 2.97-.02 1.58-.02 3.4 0 1.82-.03 3.48-.03 1.67-.17 3.39-.13 1.73-.65 3.28-.53 1.56-.76 2.81-.23 1.24-1.48 3.07-1.26 1.83-2.22 3.36-.96 1.53-2.87 2.62-1.91 1.08-3.17 1.45-1.26.38-3.35.36-2.09-.02-3.16-.06-1.08-.05-2.25-.17-1.18-.12-2.52-.46-1.35-.34-2.36-.85-1-.51-1.98-1.05-.98-.53-2.7-1.96-1.72-1.42-2.34-2.36-.63-.93-.8-2.43-.17-1.5-.07-2.64.09-1.14.32-2.88.23-1.75.9-3.19.66-1.44 1.01-3.08.36-1.63.98-2.84.61-1.21 1.28-2.75t1.57-4.09q.9-2.55 1.73-4.01.84-1.45 1.02-1.67.17-.23.4-.41.23-.18.5-.3.26-.12.55-.18.28-.05.56-.03.29.01.57.1.28.08.53.23.25.15.45.36.21.2.36.45t.24.53q.08.27.1.56.02.28-.03.57-.05.28-.17.55l-.12.27ZM36.57 123.36l.3 1.13q.3 1.14.96 2.89.67 1.75.85 3.49.19 1.75.25 3.3.07 1.54.08 3.46.02 1.92.02 3.62 0 1.69-.78 3.31-.77 1.62-1.43 4.22-.66 2.59-.8 3.08-.15.5-.44.92-.29.43-.71.73-.41.31-.89.47-.49.16-1 .16-.52-.01-1.01-.18-.48-.17-.89-.48-.41-.32-.69-.75-.29-.43-.42-.92-.13-.5-.1-1.02.03-.51.23-.99.19-.47.53-.86t.78-.65q.44-.26.95-.37.5-.11 1.01-.05.52.06.97.29.47.22.84.57.37.36.61.82.23.46.31.97.08.51-.01 1.01-.09.51-.33.96-.25.46-.63.81-.37.35-.84.56-.46.21-.98.26-.51.05-1.01-.06-.5-.12-.94-.39-.44-.27-.77-.66-.33-.4-.52-.88-.18-.48-.2-1l-.03-.51.63-2.06q.62-2.06 1.18-3.8.57-1.75.92-2.77.35-1.03.38-2.7l.04-3.44q.02-1.76.04-3.15.01-1.38-.03-2.49-.05-1.11-.53-2.18-.49-1.07-.77-2.23-.27-1.16-.31-1.48-.04-.32-.01-.62.04-.32.15-.62.12-.3.3-.57.18-.26.42-.47.24-.22.52-.37t.59-.23q.32-.07.64-.07.31-.01.62.07t.59.22q.29.15.53.36.24.22.42.48.19.26.3.56l.11.3ZM68 121.63l1.72.04q1.72.04 3.3.05 1.58.01 3.11-.45 1.53-.45 3.33-.73 1.8-.28 3.25-.66 1.46-.38 2.81-.62t2.88-.46q1.54-.23 2.96-.34 1.42-.11 2.61-.19 1.2-.08 3.2 1.12 2 1.2 2.01 2.96 0 1.76-.52 3.5t-1.49 3.37q-.97 1.63-1.51 2.73-.53 1.1-1.62 2.34-1.08 1.23-2.04 1.79t-1.9 1.96q-.93 1.41-1.72 2.78-.78 1.37-.56-.12.22-1.49 1.41-1.39 1.2.09 2.63.15 1.44.06 3.92.98 2.47.91 2.83 1.34.37.43.57.95.21.53.24 1.09t-.12 1.1q-.16.54-.47 1.01-.32.46-.77.8t-.98.52q-.53.18-1.09.17-.57 0-1.1-.18-.53-.18-.98-.52-.44-.34-.76-.81-.31-.47-.46-1.01-.15-.54-.12-1.1t.24-1.08q.21-.53.58-.95.36-.43.85-.72.48-.29 1.03-.41.55-.11 1.11-.05.55.06 1.06.3t.92.62q.41.39.67.89.26.5.35 1.05.09.56 0 1.11-.1.55-.36 1.05-.27.5-.67.88-.41.39-.92.62-.52.24-1.07.29-.56.06-1.11-.06t-1.03-.41l-.48-.29-.87-.12q-.87-.13-2.3-.26-1.43-.13-2.99-.7-1.56-.56-2.93-1.33-1.38-.78-1.99-2.43-.62-1.66-.07-3.19.55-1.54 1.64-3.12 1.1-1.58 2.66-3.04 1.55-1.47 2.51-2.42.95-.94 1.73-2.3.77-1.36 1.4-2.28.63-.93 1.64-1.28 1.01-.35-.17-.42-1.19-.07-2.51-.15-1.31-.07-2.67-.1-1.36-.02-2.48.07-1.13.1-2.79.49-1.66.4-3.14.61-1.48.21-3.61.91-2.13.69-3.74.7-1.62.01-3.34.05-1.72.04-2 .01-.28-.04-.55-.14t-.51-.26q-.23-.17-.42-.38-.19-.22-.32-.47-.14-.25-.21-.53-.06-.28-.06-.56t.06-.56q.07-.28.21-.53.13-.26.32-.47.19-.21.43-.38.23-.16.5-.26t.55-.14l.28-.03Zm54-6.29 1.15-.02q1.15-.01 2.54-.08l2.46-.14q1.07-.06 2.69-.1 1.62-.04 2.78.4 1.17.44 2.53.41 1.37-.04 2.55.43 1.18.47 2.34 1.34 1.15.86 1.98 1.69.83.82.66 2.6-.18 1.77-.74 2.7-.56.94-2.29 2.29-1.74 1.35-3.24 2.23-1.51.87-3.02 1.9-1.5 1.03-3.02 1.61-1.52.59-2.15-1.45-.64-2.04.74-1.3t2.45 1.1q1.08.35 2.88 1.25 1.79.89 2.73 1.82t.76 2.81q-.17 1.88-.74 2.84t-1.87 1.72q-1.3.75-2.82 1.32-1.52.56-3.06 1.03-1.54.46-3.8 1.31-2.25.85-3.82 1.08-1.55.23-3.58.28-2.04.05-2.59-.03-.56-.09-1.06-.34-.49-.26-.89-.66-.39-.4-.63-.91-.24-.5-.31-1.06t.05-1.11q.11-.54.39-1.03.29-.48.71-.85t.94-.58q.52-.22 1.08-.26.55-.03 1.1.11.54.14 1.01.45.46.31.81.75.34.44.53.97t.19 1.09q.01.56-.16 1.09-.17.54-.51.99-.33.45-.79.77t-1 .48q-.54.15-1.1.13-.56-.02-1.08-.22t-.95-.56q-.44-.36-.73-.83-.3-.48-.42-1.03-.13-.54-.08-1.1.06-.56.28-1.07.23-.51.61-.92.38-.42.88-.68.49-.27 1.04-.37l.55-.1 1.8-.02q1.8-.02 2.9-.02 1.09 0 2.49-.94 1.41-.93 2.66-1.14 1.26-.21 2.59-.55 1.32-.34 2.54-.61 1.23-.26.73.87-.49 1.13-1.99.58-1.5-.55-2.51-1.07-1.01-.52-2.54-1.65-1.54-1.14-.49-4.34 1.05-3.21 2.77-3.73 1.73-.51 3.31-1.58 1.59-1.06 3.32-2.27 1.74-1.21 2.79-2.17t.8.39q-.24 1.35-1.72 1.09-1.49-.25-2.92-.79-1.44-.54-2.85-.58-1.42-.04-2.49-.1l-2.46-.14q-1.39-.07-2.54-.08-1.15-.02-1.46-.06-.32-.04-.62-.15-.3-.12-.57-.3-.26-.18-.47-.42-.22-.24-.37-.53-.15-.28-.22-.59-.08-.31-.08-.63t.08-.63q.07-.31.22-.59.15-.29.37-.53.21-.24.47-.42.27-.18.57-.3.3-.11.62-.15l.31-.04Zm46.59.02.3 1.13q.3 1.15.69 2.19.4 1.03 1.17 2.31.77 1.27 1.7 3.07.94 1.8 1.61 3 .68 1.2 1.3 3.21t.73 3.31q.1 1.29.38 2.38.28 1.1 1.42.85 1.14-.25 2.4.19 1.25.44 2.64.47 1.39.02 2.44-.35 1.06-.37 2.4-.5 1.33-.12 2.48-.51 1.16-.38 2.4-.48 1.25-.11 1.28-.32.03-.21.41-.64.38-.44.88-.73t1.07-.4q.57-.12 1.14-.05.58.07 1.1.32.52.26.93.66.42.4.68.92.26.52.35 1.09.08.57-.02 1.14t-.38 1.08q-.28.5-.71.9-.42.39-.95.62-.53.24-1.11.29-.57.05-1.14-.08-.56-.13-1.05-.44t-.86-.75q-.37-.45-.57-.99-.21-.54-.23-1.12-.02-.58.14-1.13.16-.56.49-1.03.34-.48.8-.82.47-.34 1.02-.52.55-.17 1.13-.16.58 0 1.12.2.55.19 1.01.55.45.36.77.84.31.48.46 1.04.15.56.11 1.14-.04.58-.27 1.11l-.22.54-3.51 1.81q-3.52 1.8-4.75 2.3-1.23.49-2.52.49-1.29-.01-2.54.46-1.25.48-2.43.48-1.19.01-2.52-.12-1.34-.13-3.01-.52-1.66-.39-3.17-.66t-2.36-1.13q-.85-.86-1.7-2.52-.85-1.65-1.32-2.82-.47-1.17-.45-2.47.02-1.3-.41-2.72-.44-1.41-.94-2.37-.51-.97-1.42-2.28-.9-1.32-1.43-2.84-.53-1.52-1.06-3.28-.53-1.75-.8-2.9-.28-1.16-.32-1.48-.04-.32 0-.63.04-.32.15-.62.11-.3.3-.57.18-.26.42-.48.24-.21.52-.36.29-.15.6-.23.31-.08.64-.08.31 0 .62.08.32.07.6.22.29.15.53.36.24.22.42.48.19.26.3.57l.12.3Z"/><path d="m189.51 128.41-.35 1.72q-.35 1.71-.45 3.68-.09 1.96-.82 3.49-.74 1.53-1.24 3.37-.51 1.84-.99 4-.47 2.16-.63 4.31-.16 2.16-.25 2.61-.1.46-.34.85-.24.4-.59.71-.35.3-.78.47-.43.18-.9.21-.46.02-.91-.1-.45-.12-.83-.38-.39-.26-.67-.63-.29-.37-.44-.81-.15-.44-.15-.9 0-.47.14-.91.15-.44.43-.81.28-.37.66-.63.39-.27.83-.39.45-.13.91-.11.47.03.9.2.43.17.79.46.36.3.6.7.24.4.34.85.1.46.06.92-.05.46-.25.88-.19.43-.51.77-.32.33-.72.55-.41.22-.87.3-.46.08-.92.01-.46-.08-.87-.29-.41-.22-.73-.56-.33-.33-.52-.75-.2-.42-.25-.89l-.05-.46.37-2.75q.37-2.75.69-3.9.31-1.15.94-3.25.63-2.1 1.05-3.43.42-1.33.96-2.83t.71-2.57q.18-1.07.4-2.81.23-1.72.32-2.02.08-.29.24-.56.15-.27.37-.49.21-.22.47-.38t.55-.26q.29-.1.6-.12.3-.02.6.03t.59.17q.28.12.52.31.25.18.44.42.2.24.33.52t.19.58q.06.3.05.6l-.02.3Zm33.06-16.05.3 1.26q.29 1.26-.01 2.59-.31 1.32-1.14 2.13-.83.8-2.13 1.34-1.32.53-3.23.89-1.91.35-3.49.42-1.57.08-2.8.12-1.22.05-2.77.1t-.71 1.06q.84 1.01 1.19 2.52.34 1.51.86 2.5t1.07 2.51q.56 1.52 1.58 2.47 1.01.96 2.86 1.6 1.85.65 3.65 1.66 1.79 1 2.54 2.32.77 1.31 1.33 2.9.56 1.59.71 2.96.14 1.37-.36 3.34-.5 1.97-2 3.26-1.48 1.28-2.34 2.14-.85.87-2.85 1.83-2 .97-3.01 1.45-1 .47-2.03.98-1.03.5-2.58 1.03-1.54.53-2.92.67-1.37.14-3.32.17-1.95.02-2.53-.07-.57-.09-1.09-.36-.52-.28-.92-.7-.4-.42-.65-.95t-.31-1.11q-.07-.58.06-1.15.12-.57.42-1.07.3-.5.74-.88t.99-.6q.54-.21 1.12-.25.58-.03 1.14.12.57.16 1.05.48.49.33.84.79.36.46.54 1.02.19.55.19 1.13.01.59-.18 1.14-.18.55-.53 1.02-.36.46-.84.79t-1.04.49q-.56.16-1.15.13-.58-.03-1.12-.24-.54-.22-.99-.59-.45-.38-.75-.88t-.43-1.07q-.13-.57-.06-1.15.06-.58.3-1.11.24-.53.64-.95.4-.43.92-.7.51-.28 1.09-.38l.57-.09 2.45.04q2.44.04 3.9-.44 1.45-.49 2.43-1.07.99-.57 2.08-.68 1.08-.12 2.37-.97t2.3-2.49q1.01-1.65.75-3.27-.27-1.63-1.49-1.92-1.22-.3-2.93-.73-1.72-.43-3.57-1.39-1.85-.97-2.6-2.05-.74-1.08-.64-2.27.1-1.18-.63-2.47-.74-1.3-1.52-2.8-.78-1.49-1.06-2.56t-.25-2.58q.03-1.52.08-2.61.05-1.1.5-2.76.45-1.67 1.48-2.4 1.04-.73 3.09-.95 2.05-.22 3.13-.19t2.53.05q1.45.02 3.02-.02 1.58-.04 2.58.4 1 .45.72-.59-.28-1.03-.32-1.35-.04-.32 0-.62.04-.32.15-.62.11-.3.29-.56.18-.27.42-.48.24-.21.52-.36.29-.15.6-.23.31-.08.63-.08.31 0 .62.07.31.08.59.23.29.15.53.36.24.21.42.47t.3.56l.11.3Zm176.16-3.15-.83.34q-.85.34-1.48.51-.64.17-.94.24-.3.06-.61.05-.31-.02-.6-.1-.3-.09-.57-.24-.26-.16-.48-.37-.23-.21-.39-.47t-.26-.55q-.1-.3-.12-.6-.03-.31.02-.61.05-.31.17-.58.12-.28.31-.53.18-.24.42-.44.24-.19.52-.32.28-.14 1.88-.5 1.61-.36 1.99-.4.38-.04.76.05.38.08.72.29.33.2.58.5.25.3.39.66.14.36.16.75.02.38-.09.76-.1.37-.33.69-.22.32-.53.56-.31.23-.68.35-.37.13-.75.12-.39 0-.76-.13-.37-.12-.68-.36-.31-.24-.52-.56-.22-.33-.32-.71-.1-.37-.08-.75.02-.39.17-.75.15-.36.4-.66.26-.29.59-.49.34-.2.72-.28.38-.08.76-.04.39.05.74.21.35.17.63.44t.46.62q.18.34.24.73.07.37 0 .76-.07.38-.25.72-.19.35-.47.61-.29.27-.64.43l-.36.16-1.41.46q-1.43.45-1.73.52-.3.06-.61.05-.31-.02-.6-.1-.3-.09-.57-.24-.26-.16-.48-.37-.23-.21-.39-.47t-.26-.55q-.1-.3-.12-.6-.03-.31.02-.61.05-.31.17-.58.12-.28.31-.53.18-.24.42-.44.24-.19.52-.32.28-.14.95-.21.67-.07 1.55-.31.88-.23 1.15-.29.28-.05.55-.04.28.01.55.09t.52.22q.24.14.44.33.21.2.36.44.15.23.24.5.08.27.11.55.02.27-.03.55-.04.28-.15.54-.11.25-.28.48-.17.22-.39.4-.22.18-.47.3l-.26.12Z"/></svg>