<svg xmlns="http://www.w3.org/2000/svg" width="572" height="439.445"><defs><style>@font-face{font-family:&quot;Virgil&quot;;src:url(https://excalidraw.com/Virgil.woff2)}@font-face{font-family:&quot;Cascadia&quot;;src:url(https://excalidraw.com/Cascadia.woff2)}</style></defs><path fill="#fff" d="M0 0h572v439.445H0z"/><path d="m92.82 57.35 1.19.51q1.18.5 2.13 1.05.95.54 1.86 1.52.9.99 1.8 2.62.9 1.64 1.96 3.03 1.06 1.38 2.15 3.33 1.09 1.95 2.09 3.94.99 1.99 2.23 4.25 1.25 2.25 2.6 4.34 1.35 2.08 2.29 3.92.95 1.83 2.14 4 1.2 2.17 2.07 3.66.88 1.48 2.45 3.51 1.57 2.03 2.54 2.78.98.75 1.11.97.14.23.22.48.08.25.09.51.02.26-.03.52t-.15.5q-.11.23-.27.44-.16.21-.37.37-.2.16-.44.27-.24.11-.5.16-.26.04-.52.03-.26-.02-.51-.1-.25-.07-.47-.21-.23-.13-.41-.32-.19-.18-.31-1.63-.11-1.45-.07-2.92.04-1.48.05-3.04.02-1.55.01-3.07 0-1.53-.01-3.03 0-1.51.04-3.31.04-1.79 0-3.12-.04-1.34-.01-3.06.02-1.72.14-3.88.12-2.17.13-3.95 0-1.79.03-3.7.04-1.9.11-4.15.08-2.25.14-4.64.05-2.39-.01-3.98-.06-1.59-.07-3.42-.01-1.82-.09-3.18l-.15-2.5q-.08-1.15-.15-2.21-.07-1.06-.19-2.81t-.21-3.3q-.1-1.55.03-3.07.13-1.52.78-2.47.66-.95 2.24-1.41 1.59-.47 3.33-.14 1.74.33 3.34.43 1.59.1 2.8.14 1.21.04 2.31.04 1.1.01 2.42.04 1.33.03 3.04.12 1.72.09 3.02.1 1.31 0 2.72.02 1.42.01 3.17.09t3.07.06q1.32-.01 2.75 0 1.42 0 2.89.01 1.47.01 3.24.07 1.77.07 3.39.09 1.62.02 3.74.15 2.12.14 3.89.15 1.77.02 3.09-.04 1.33-.05 3.04-.04 1.71.02 3.3 0 1.59-.01 2.84-.06 1.26-.05 2.36-.1 1.11-.06 2.44-.08 1.33-.02 2.48-.06 1.14-.04 2.42-.36 1.28-.31 2.79-.49 1.51-.19 2.99-.23l2.66-.09q1.19-.04 2.27-.07 1.09-.03 2.41-.03 1.33 0 2.47-.02 1.13-.01 2.77.05 1.63.05 2.9.05 1.27-.01 3.25.11 1.97.13 3.39.12 1.41-.01 2.59-.05 1.18-.03 2.54-.04 1.36-.01 2.51-.04 1.16-.03 2.8.01t3.91-.01q2.26-.06 4.02-.13 1.76-.08 3.02-.08t2.37-.01q1.11-.02 2.72-.07 1.61-.04 2.97-.49 1.37-.46 3.04-.58 1.68-.13 3.62-.16 1.94-.02 3.93-.03 1.99 0 3.28.03 1.28.03 3.49.36 2.21.34 4.2.48 2 .14 3.72.14 1.73.01 2.86-.03 1.12-.04 2.86-.05 1.74-.01 2.24.07.51.09.96.33.45.23.8.6.35.38.56.84.22.46.27.97.06.51-.05 1.01-.11.49-.37.93-.27.44-.66.77t-.86.52q-.47.19-.98.21-.51.03-1-.11-.5-.13-.92-.42-.42-.29-.73-.69-.31-.41-.47-.89-.16-.49-.16-1t.16-.99q.16-.48.47-.89.31-.41.73-.69.43-.29.92-.42.49-.14 1-.11.51.02.98.21.48.19.87.52.38.33.65.77.26.44.37.94.11.5.05 1-.05.51-.27.97-.21.47-.56.84-.35.37-.8.61-.46.23-.96.32l-.5.08-2.3-.04q-2.29-.03-3.64-.09-1.36-.06-2.44-.08-1.09-.03-2.27-.08t-2.74-.21q-1.56-.16-2.88-.4-1.31-.24-3.59-.21t-4.23.03q-1.95 0-3.64.01-1.68 0-2.75.02-1.06.02-2.25.39-1.19.36-2.89.32-1.7-.05-2.81-.07-1.11-.01-2.37-.01t-3.02-.08q-1.76-.07-4.02-.13-2.27-.05-3.91-.01-1.64.04-2.8.01-1.15-.03-2.51-.04-1.36-.01-2.54-.04-1.18-.04-2.59-.05-1.42-.01-3.39.12-1.98.12-3.25.12-1.27-.01-2.9.05-1.63.06-2.76.04-1.13-.01-3.5-.01-2.37-.01-3.51 0-1.14 0-3.44.12-2.29.12-4.36.38-2.07.26-3.21.22-1.15-.04-2.48-.06-1.33-.02-2.44-.08-1.1-.05-2.36-.1-1.25-.05-2.84-.06-1.59-.02-3.3 0-1.71.01-3.04-.04-1.32-.06-3.09-.04-1.77.01-3.89.15-2.12.13-3.74.15-1.62.02-3.39.09-1.77.06-3.24.07-1.47.01-2.89.01-1.43.01-2.75 0-1.32-.02-3.07.06-1.75.07-3.17.09-1.42.02-2.72.02-1.31 0-3.03.09-1.72.09-3.06.11-1.34.02-2.47.01-1.12-.01-3.49-.08-2.37-.08-4.22-.46-1.85-.39-1.95 1.16-.09 1.55-.21 3.3-.12 1.75-.19 2.81t-.15 2.21l-.15 2.5q-.08 1.36-.09 3.18-.01 1.83-.07 3.42-.06 1.59-.01 3.98.06 2.39.14 4.64.07 2.25.11 4.15.03 1.91.03 3.7.01 1.78.13 3.95.11 2.17.14 3.88.03 1.72-.02 3.06-.04 1.34 0 3.13.04 1.8.03 3.31l-.04 3.06q-.02 1.54-.05 3.13-.02 1.59-.43 3.1-.41 1.52-.28 1.74.14.23.22.48.08.25.09.51.02.26-.03.52-.04.26-.15.49-.11.24-.27.45-.16.21-.37.37-.2.16-.44.27-.24.11-.5.16-.26.04-.52.03-.26-.02-.51-.1-.25-.07-.47-.21-.23-.13-.41-.32-.19-.18-.3-.19-.11 0-.86-1.01-.76-1.02-1.56-2.3-.79-1.28-1.39-2.33-.59-1.06-1.34-2.58-.75-1.52-2.04-3.72t-2.12-3.88q-.84-1.68-2.32-3.8-1.48-2.13-2.85-4.37-1.36-2.24-2.45-4.07t-2.18-3.45q-1.09-1.63-2.47-3.23-1.38-1.61-2.15-2.95t-1.71-2.48q-.93-1.13-2.05-1.78-1.1-.64-1.29-.76-.19-.12-.34-.29-.15-.16-.26-.36-.11-.19-.16-.41-.06-.22-.07-.44 0-.21.05-.43t.15-.42q.1-.2.24-.37.15-.17.33-.3.18-.13.39-.21.21-.09.43-.12t.43-.01q.22.03.43.1l.21.08Z"/><path d="m199 52.66-1.15.01q-1.15.02-2.54.09-1.39.07-3.12.53-1.72.46-2.66 1.09-.94.62-1.84 1.49-.91.86-2.32 1.41-1.4.55-2.49 1.15-1.09.6-2.37 2.17-1.27 1.58-2.35 2.37-1.07.8-1.43 1.85-.36 1.05-.89 2.13-.52 1.07-.46 2.22.06 1.16 1.07 2.33 1.01 1.17 2.6 1.97 1.6.79 3.65 1.83 2.05 1.03 3.24 1.55 1.2.52 2.57 1.07 1.37.55 3 1.51 1.62.95 3.77 1.64 2.14.7 3.71 1.28 1.55.59 3.6 1.05 2.05.46 3.89 1.43 1.83.98 2.64 2.77t.7 3.75q-.11 1.96-1.51 3.72-1.4 1.76-3.04 2.4-1.65.64-2.76.95-1.11.31-2.39.53-1.27.22-2.83.67-1.57.46-2.72.71-1.16.24-3.14.59-1.99.36-3.26.41-1.28.05-2.85.08-1.56.03-3.07.05-1.5.02-2.62 0t-2.36-.5q-1.24-.48-2.89-1.36-1.64-.88-2.51-1.75-.87-.87-1.5-2.53-.62-1.66-.77-3.04-.15-1.37.24-3.85t.95-3.65q.56-1.17 1-2.2.44-1.02 1.45-2.43 1-1.4 1.53-2.45.53-1.05 1.18-2.08.66-1.04 2.27-2.99 1.61-1.94 2.71-3.02 1.09-1.07 1.9-1.85.81-.77 2.52-2.15t3.25-2.46q1.54-1.07 2.53-1.94.99-.87 2.53-1.93 1.54-1.06 2.58-1.63 1.03-.57 2.05-1.12 1.02-.55-.61-2.62-1.64-2.06-1.82-2.59-.17-.54-.17-1.1t.18-1.09q.19-.54.53-.98.35-.45.81-.76.47-.32 1.02-.47.54-.14 1.1-.11.56.03 1.08.24.52.22.95.58.43.37.72.86.29.48.41 1.03.11.54.05 1.11-.06.56-.3 1.07t-.63.92q-.39.4-.89.66-.5.27-1.06.35-.56.09-1.11 0-.55-.1-1.05-.36-.5-.27-.88-.68-.39-.41-.62-.93-.24-.51-.29-1.07-.06-.56.06-1.1.13-.55.42-1.04.29-.48.73-.84.43-.36.95-.57.53-.21 1.09-.23.56-.03 1.1.12.54.16 1.01.48.46.32.8.77l.34.45 1.12 1.18q1.12 1.18 1.71 2.7.6 1.53.81 3.15.2 1.62-.54 3.11-.74 1.5-1.76 2.33-1.02.84-2.2 1.12-1.17.27-2.19.76-1.01.48-1.97 1.32-.97.83-2.4 1.98-1.43 1.14-2.88 2.13t-2.69 1.98q-1.24.98-2.64 2.35-1.41 1.38-2.56 2.28-1.15.9-2.14 2.57-.99 1.66-2.23 4.03-1.24 2.36-1.97 4.16-.74 1.8-.89 3.29-.16 1.49-.3 2.9-.14 1.42 1.17 2 1.32.58 2.7.56 1.38-.01 2.89.01 1.5.02 3.03.03 1.53.01 2.9-.04 1.36-.04 2.58-.5 1.21-.45 2.37-.58 1.17-.13 2.98-.62t3.26-.83q1.46-.34 2.27-1.27.82-.93-.8-1.5-1.62-.56-3.13-1.16-1.52-.59-3.38-1.25-1.85-.65-3.32-1.1-1.48-.44-2.79-1.07-1.31-.63-2.8-1.08-1.49-.46-2.96-.97-1.47-.5-2.56-.98t-3.03-1.53q-1.93-1.05-4.01-2.19t-3.07-1.92q-.99-.79-1.6-2.77-.62-1.98-.58-3.05.03-1.07.19-2.43.16-1.35.76-2.98.61-1.62 1.41-2.96.8-1.34 1.55-2.27.75-.93 1.67-1.71.93-.79 2.48-2.48 1.55-1.69 2.5-2.27.94-.59 2.67-1.33 1.73-.75 3-1.48 1.26-.72 3.09-1.54 1.84-.82 3.91-1.18 2.08-.36 3.47-.29 1.39.07 2.54.09 1.15.01 1.46.05.32.04.62.15.3.12.57.3.26.18.47.42.22.24.36.53.15.28.23.59.08.31.08.63t-.08.63q-.08.31-.23.59-.14.29-.36.53-.21.24-.47.42-.27.18-.57.3-.3.11-.62.15l-.31.04ZM130.78 163.17l.82-.61q.81-.61 1.73-1.94.92-1.33 2.72-3.43 1.8-2.1 3.17-4.31 1.38-2.21 2.79-3.72 1.4-1.51 2.79-3.63 1.39-2.11 2.95-4.25 1.57-2.14 3.09-4.43 1.53-2.28 3.08-4.43 1.56-2.15 3.07-4.45 1.51-2.31 2.76-3.94 1.24-1.63 2.29-3.15 1.05-1.53 1.7-2.75.65-1.23 1.52-2.65.87-1.43 1.51-2.41.64-.99 1.63-2.72.99-1.72 2.27-2.89 1.27-1.16 2.37-1.9t2.36-.49q1.25.25 2.2 1.26.94 1.02 2.25 1.73 1.3.71 2.56 2.09 1.27 1.39 2.45 3.16 1.19 1.77 2.87 3.24 1.68 1.46 3.15 3.16 1.47 1.7 2.86 3.26 1.39 1.55 3.1 3.38 1.72 1.82 3.2 2.76 1.48.94 3.1 2.33 1.61 1.39 3.1 2.48t3.51 2.44q2.01 1.36 3.58 2.89 1.58 1.54 2.75 2.31 1.17.76 2.54 1.67 1.38.9 2.46 1.97 1.08 1.06 2.69 1.9 1.61.84 1.88 1.02.28.18.49.44.2.26.32.57.11.31.12.64.01.33-.09.65-.1.31-.3.58-.19.27-.46.46t-.58.29q-.32.09-.65.08-.33-.01-.64-.12-.31-.12-.57-.33-.25-.2-.43-.48-.18-.28-.26-.6-.07-.33-.05-.65.03-.33.16-.64.14-.3.36-.55.22-.24.51-.4.29-.16.61-.22.32-.07.65-.02t.62.19q.3.15.53.39.24.23.38.53.15.29.19.62.04.33-.02.65-.06.33-.23.62-.16.28-.41.5-.24.22-.55.35-.3.13-.63.16-.33.02-.65-.06l-.32-.08-2.25-1.42q-2.24-1.42-2.9-2.32-.66-.9-2.03-1.91-1.36-1-2.58-2.03-1.22-1.03-2.57-2.36-1.35-1.33-3.5-2.66-2.16-1.34-3.71-2.51-1.55-1.17-3.03-2.4-1.48-1.22-3.24-2.38-1.75-1.16-3.58-2.91-1.83-1.76-3.36-3.22-1.54-1.47-2.9-2.81-1.37-1.34-3.64-2.97-2.27-1.63-4.28-3.87-2.01-2.24-3.02-2.85-1-.61-2.07-1.49-1.06-.89-.22-1.7.83-.81-.02-.09-.86.72-1.86 1.72-.99 1.01-2.38 2.77-1.39 1.77-2.31 3.11-.92 1.34-1.77 2.57-.86 1.23-1.98 2.77-1.13 1.53-2.31 3.05-1.18 1.52-2.66 3.91-1.48 2.4-2.91 4.55-1.42 2.14-2.86 4.56-1.44 2.41-2.78 4.56-1.34 2.14-2.73 4.71-1.4 2.56-2.47 3.94-1.08 1.38-1.93 2.75-.84 1.37-2.66 3.25-1.81 1.89-3.06 3.8-1.26 1.92-2.2 2.94-.95 1-1.86 1.54-.9.54-1.14.66-.24.12-.5.17-.26.06-.51.06-.27 0-.52-.07-.26-.07-.49-.2-.23-.12-.43-.3-.2-.18-.34-.4-.15-.22-.24-.47-.09-.25-.12-.52-.03-.25.01-.51.04-.27.13-.51.1-.25.26-.47.15-.21.35-.38l.2-.18ZM80.91 261.82l1.11-.58q1.12-.57 2.15-1.85 1.02-1.28 2.19-2.39 1.16-1.12 1.91-1.91.74-.79 1.54-1.83.81-1.05 1.41-2.05.6-1 1.99-2.28 1.39-1.27 3.1-3.09 1.72-1.82 2.8-2.52 1.07-.7 2.14-1.69 1.07-.98 2.18-1.71t2.5-1.64q1.38-.91 2.42-1.49 1.03-.59 2.4-.79 1.38-.21 3.25.25 1.87.45 3 .97 1.14.51 2.45 2.11 1.31 1.59 1.96 2.69.65 1.1 1.21 2.09.57 1 1.43 2.92.87 1.92 1.47 3.08.61 1.15 1 2.51.39 1.36.92 2.51.53 1.16.67 2.46.15 1.3.68 2.8.52 1.51.94 3.62.42 2.12.9 3.63.48 1.52 1.12 4.7.64 3.18.58 3.72-.07.55-.3 1.05-.24.5-.62.9t-.87.65q-.49.26-1.04.35-.54.08-1.09-.01-.54-.09-1.03-.36-.48-.26-.86-.66-.38-.41-.61-.91-.23-.5-.28-1.05-.06-.55.07-1.09.12-.54.41-1.01.28-.47.71-.82.42-.36.93-.56.52-.2 1.07-.23.55-.02 1.08.13t.99.46q.45.32.79.76.33.44.5.96.17.53.17 1.08-.01.55-.19 1.07-.18.53-.51.96-.34.44-.8.75t-.99.45q-.53.14-1.09.11-.55-.03-1.06-.24t-.93-.57q-.42-.36-.7-.84-.28-.47-.39-1.01l-.12-.54-.01-1.03q-.01-1.03-.56-3.18-.55-2.14-1.1-3.88-.55-1.73-.91-3.76-.36-2.04-.89-4.2-.54-2.16-1.05-3.61-.51-1.46-1.09-2.39-.57-.93-1.04-2.08-.46-1.16-1-2.22-.53-1.06-1.52-2.61-.99-1.54-1.49-2.69-.5-1.16-1.68-1.97-1.18-.82-2.22-.35-1.04.48-2.06 1.28-1.02.79-2.01 1.27-.99.47-2.48 1.6-1.48 1.12-3.04 2.09-1.55.97-2.48 2.13-.94 1.17-1.84 1.96-.91.79-1.65 1.95-.74 1.16-1.74 2.5-.99 1.33-1.78 2.08t-2.51 2.49q-1.72 1.75-2.85 2.78-1.12 1.03-2.3 1.61-1.18.57-1.46.67-.28.09-.57.12-.28.03-.57-.01-.3-.04-.57-.15-.27-.11-.51-.28-.24-.17-.43-.4-.19-.22-.32-.48-.13-.27-.2-.55-.06-.29-.06-.57.01-.3.09-.58.07-.28.21-.54.15-.26.34-.48.2-.21.45-.37l.24-.17Z"/><path d="M131.11 282.95c11.49 1.79 22.43 8.01 30.71 13.08 8.29 5.07 15.45 10.95 19 17.33 3.56 6.38 4.66 14.36 2.35 20.95s-8.66 13.36-16.22 18.58c-7.56 5.23-18.29 9.51-29.14 12.76-10.85 3.25-23.48 6.39-35.97 6.74-12.49.36-27.07-1.81-38.95-4.62-11.88-2.82-24.05-7.19-32.32-12.26-8.27-5.08-14.27-12.02-17.32-18.2-3.05-6.18-3.06-12.67-.99-18.9 2.07-6.23 6.18-13.1 13.42-18.51 7.23-5.41 18.67-10.65 30.01-13.94 11.33-3.3 25.1-5.4 37.98-5.83 12.89-.43 32.58 2.24 39.35 3.24 6.77 1.01 1.81 1.83 1.28 2.77m-78.4-2c10.02-3.46 26.29-4.73 39.23-4.97 12.94-.23 27.12.88 38.4 3.57 11.28 2.69 21.51 7.16 29.29 12.56 7.77 5.39 14.16 13.2 17.37 19.81 3.21 6.61 3.95 13.61 1.9 19.85-2.05 6.24-6.43 12.16-14.18 17.58-7.74 5.42-20.83 11.9-32.28 14.93-11.45 3.03-24.15 3.11-36.42 3.25-12.28.15-25.74.19-37.23-2.36-11.5-2.54-23.63-7.53-31.75-12.93-8.12-5.39-13.63-13.09-16.96-19.42-3.33-6.34-5.64-12.55-3.03-18.59 2.62-6.05 11.11-12.23 18.74-17.7 7.64-5.46 22.2-12.78 27.05-15.08 4.85-2.3 1.02.37 2.05 1.28" stroke="#000" fill="none" stroke-linecap="round"/><text y="38" font-family="Virgil, Segoe UI Emoji" font-size="42.667" style="white-space:pre" transform="translate(99 179)">4</text><text y="38" font-family="Virgil, Segoe UI Emoji" font-size="42.667" style="white-space:pre" transform="translate(216.5 180)">2</text><text y="38" font-family="Virgil, Segoe UI Emoji" font-size="42.667" style="white-space:pre" transform="translate(49 299)">2</text><text y="38" font-family="Virgil, Segoe UI Emoji" font-size="42.667" style="white-space:pre" transform="translate(113 298)">2</text><g stroke-linecap="round"><path d="M222.4 328.69c18.4-.13 92.63 0 110.98.21m-109.09-1.42c18.28-.08 90.47 1.76 108.35 2.38" stroke="#000" fill="none"/><path d="M303.65 339.94c7.17-4.1 17.43-6.36 30.39-9.96m-29.29 8.42c8.45-2.34 17.62-5.22 27.89-8.7M304.24 319.43c7.11 2.05 17.2 5.94 29.8 10.55m-28.7-12.1c8.14 4.22 17.12 7.91 27.3 11.82" stroke="#000" fill="none"/></g><path d="m467.48 326.77.78.82q.79.81 1.43 1.93.65 1.13 1.18 2.83.53 1.7 1.13 3.12.59 1.43 1.13 3.34.54 1.91 1.01 3.87.47 1.97 1.04 4.23.56 2.26 1.2 4.35.64 2.09 1.12 3.91.49 1.81 1.05 3.98.57 2.18 1.04 3.67.48 1.5 1.36 3.58.87 2.08 1.41 2.88.53.8.6 1.06.07.26.07.54.01.27-.06.53-.06.27-.18.51t-.3.45q-.18.2-.4.36-.22.16-.48.26-.25.1-.52.13-.27.04-.54.01t-.53-.12q-.25-.09-.48-.25-.22-.15-.41-.35-.18-.2-.31-.44t-.18-1.32q-.05-1.09-.01-2.65.05-1.57.06-3.13.01-1.57.01-3.09v-3.04q0-1.51.04-3.3.05-1.8.01-3.13-.03-1.34-.01-3.06.03-1.72.15-3.88.12-2.17.13-3.95.01-1.79.04-3.7.04-1.9.11-4.15.08-2.25.14-4.64.06-2.39 0-3.98-.07-1.59-.08-3.42-.01-1.82-.08-3.18-.08-1.35-.16-2.5-.07-1.15-.14-2.21t-.19-2.81q-.12-1.75-.21-3.3-.1-1.55-.14-2.76-.04-1.22 1.07-2.73 1.12-1.51 3.17-1.35 2.05.16 3.61.16t3.07-.02l2.86-.04q1.36-.02 2.89-.03 1.54-.02 2.99-.03 1.44-.02 3.14-.01 1.69 0 3.64.02 1.94.02 3.46.01 1.52-.02 2.94-.03 1.42-.01 2.64-.03 1.22-.02 2.93-.43 1.7-.42 3.24-.53 1.54-.11 2.79-.14 1.25-.02 2.64-.02 1.4 0 3.02.01 1.62.02 2.92.01 1.3-.01 2.55-.01 1.26-.01 2.57-.01l2.84-.02q1.52-.02 2.7-.03 1.19-.01 2.29-.37 1.11-.37 2.26-.52 1.14-.15 2.68-.18 1.53-.02 2.68-.02 1.14 0 2.93.53 1.79.54 4.4.49 2.61-.04 3.18.05.58.1 1.09.37.51.27.91.7.4.42.65.95.24.53.3 1.1.07.58-.06 1.15-.12.57-.42 1.07-.3.49-.75.87-.44.38-.98.59-.54.22-1.12.25-.58.03-1.14-.13-.56-.15-1.05-.48-.48-.33-.83-.79t-.54-1.01q-.18-.56-.18-1.14 0-.58.19-1.13.18-.55.53-1.01.36-.47.84-.79.48-.33 1.04-.48.56-.16 1.14-.13.58.03 1.12.25.54.22.99.59.44.38.74.88t.42 1.06q.13.57.06 1.15-.06.58-.3 1.11-.25.52-.65.95-.4.42-.91.69-.52.27-1.09.37l-.58.09-1.88-.02q-1.88-.02-3.22-.13-1.35-.11-2.51-.49-1.17-.37-2.79-.37-1.63 0-2.69-.21t-2.21.36q-1.14.58-2.25.67-1.1.09-2.29.08-1.18-.01-2.7-.03l-2.84-.02q-1.31 0-2.57-.01-1.25 0-2.55-.01-1.3-.01-2.92.01-1.62.02-2.99.02-1.38 0-2.52.01-1.14 0-2.23-.07-1.1-.06-2.81.45-1.71.52-2.95.5-1.23-.01-2.41-.04-1.18-.02-2.83-.02-1.65 0-3.2-.01-1.55-.01-3.42 0-1.87.02-3.49.02-1.62-.01-2.99-.03-1.37-.02-2.96-.03-1.58-.01-3.1-.03-1.52-.02-2.78-.07-1.27-.05-2.68-.6-1.41-.55-1.51 1-.09 1.55-.21 3.3-.12 1.75-.19 2.81t-.14 2.21q-.08 1.15-.16 2.5-.07 1.36-.08 3.18-.01 1.83-.08 3.42-.06 1.59 0 3.98.06 2.39.14 4.64.07 2.25.11 4.15.03 1.91.04 3.7.01 1.78.13 3.95.12 2.17.15 3.88.02 1.72-.01 3.06-.04 1.34 0 3.13.05 1.79.04 3.31l-.02 3.05q-.01 1.53-.01 3.12-.01 1.58-.18 3.37-.18 1.79-.11 2.05.07.26.07.54.01.27-.06.53-.06.27-.18.51t-.3.45q-.18.2-.4.36-.22.16-.48.26-.25.1-.52.13-.27.04-.54.01t-.53-.12q-.25-.09-.48-.25-.22-.15-.41-.35-.18-.2-.31-.44t-.08-.14q.05.11-.39-.97-.43-1.07-1.04-3.35-.6-2.28-.93-3.79-.34-1.52-1.02-3.71-.68-2.19-1.08-3.9-.4-1.7-1.19-3.82-.78-2.12-1.52-4.37-.74-2.24-1.32-4.1-.57-1.86-1.15-3.55-.57-1.68-1.25-3.3-.68-1.61-1.35-3.77t-1.33-3.06q-.65-.91-.78-1.1-.12-.2-.2-.42-.07-.22-.1-.45-.02-.22.02-.45.03-.23.12-.45.09-.21.23-.4.14-.19.32-.34.18-.15.39-.25.2-.1.43-.15.23-.05.45-.04.24 0 .46.07.22.06.43.17.2.12.37.28l.17.16Z"/><g stroke-linecap="round"><path d="M252.76 202.48c29.18-7.07 129.89-58.82 175.29-43 45.4 15.82 81.08 114.68 97.13 137.92M251.7 201.69c28.9-6.91 129.7-57.07 175.17-40.95 45.47 16.12 81.41 114.98 97.64 137.67" stroke="#000" fill="none"/><path d="M502.96 277.65c6.85 8.55 15.26 14.8 23.11 19.06m-24.15-18.85c8.9 7.53 16.66 14.65 22.68 19.65" stroke="#000" fill="none"/><path d="M521.05 267.96c-.06 12.37 1.44 22.32 5.02 28.75m-6.06-28.54c2.55 10.79 4 21.29 4.59 29.34" stroke="#000" fill="none"/></g><g stroke-linecap="round"><path d="M169.118 392.164c26.23 5.83 112.4 37.8 157.75 35.88 45.36-1.93 95.29-39.82 114.37-47.45m-270.42 10.41c26.15 5.94 109.79 39.97 155.27 38.39 45.48-1.59 98.42-39.7 117.61-47.9" stroke="#000" fill="none"/><path d="M423.398 404.454c4.72-7.44 9.05-12.94 21.83-24.9m-22.35 24.96c8.76-9.07 14.97-15.35 19.89-22.28" stroke="#000" fill="none"/><path d="M413.638 386.394c7.3-2.77 14.11-3.69 31.59-6.84m-32.11 6.9c12.18-2.77 21.77-2.79 29.65-4.22" stroke="#000" fill="none"/></g><text y="38" font-family="Virgil, Segoe UI Emoji" font-size="42.667" style="white-space:pre" transform="translate(513 314)">2</text><text y="38" font-family="Virgil, Segoe UI Emoji" font-size="42.667" style="white-space:pre" transform="translate(416 312)">2</text><text y="18" font-family="Virgil, Segoe UI Emoji" font-size="20" style="white-space:pre" transform="translate(350 10)">yeah this is a thing</text></svg>