<svg xmlns="http://www.w3.org/2000/svg" width="511.862" height="609.376"><defs><style>@font-face{font-family:&quot;Virgil&quot;;src:url(https://excalidraw.com/Virgil.woff2)}@font-face{font-family:&quot;Cascadia&quot;;src:url(https://excalidraw.com/Cascadia.woff2)}</style></defs><path fill="#fff" d="M0 0h511.862v609.376H0z"/><text y="18" font-family="Virgil, Segoe UI Emoji" font-size="20" style="white-space:pre" transform="translate(137.84 10)">Rust&apos;s compilation pipeline</text><path d="M10.032 103.709c52.48 2.98 105.99 3.82 148.99 3.1m-147.16-2.22c34.6-.08 71.66-.27 144.92.57m-.22.85c-1.31 23.94-.72 48.13 1.02 63.53m-.24-63.43c-.83 17.64-.87 37.9-.6 65.43m1.26 1.23c-55.38.66-108.48-.78-147.6-2.79m147.75 1.55c-44.15 1.25-89.27.21-145.56.06m.53-2.14c.22-14.04-1.84-35.04-.85-63.2m-.2 64.33c.27-24.09.6-48.41-.99-66.12" stroke="#000" fill="none" stroke-linecap="round"/><text x="46.5" y="19" font-family="Virgil, Segoe UI Emoji" font-size="20" text-anchor="middle" style="white-space:pre" transform="translate(37.96 110.269)">Lexing &amp; </text><text x="46.5" y="47" font-family="Virgil, Segoe UI Emoji" font-size="20" text-anchor="middle" style="white-space:pre" transform="translate(37.96 110.269)">Parsig</text><path d="M18.713 221.46c35.45-1 70.13-.64 145.12.25m-146.38 1.63c38.95-.19 78.26-1.4 144.81-.31m1.47.32c.08 8.63-.11 18.71-.36 42.99m-.33-43.15c-.53 11.08.48 24.56-.61 40.95m-1.07.01c-57.99 1.44-114.82 2.63-144.36-1.2m144.91 2.67c-36.94 1.2-71.94.68-145.12-.76m-.24-1c.93-11.81 1.85-28.61-.1-41.39m.84 42.67c-1.03-15.51-.37-28.7.36-42.51" stroke="#000" fill="none" stroke-linecap="round"/><g stroke-linecap="round"><path d="M88.337 185.197c.56 4.61 1.29 23.12 1.42 27.5m-2.27-28.48c.52 4.28 1.45 22 1.58 26.71m-5.02-11.95c1.82 2.18 1.64 4.04 3.71 12.81m-4.38-13.06c1.58 2.53 3.51 5.8 5.85 12.86" stroke="#000" fill="none"/><path d="M93.287 198.587c-.36 2.36-2.71 4.31-5.53 13.2m4.86-13.46c-.63 2.61-.91 5.97-3.39 13.26" stroke="#000" fill="none"/></g><text x="67.5" y="19" font-family="Virgil, Segoe UI Emoji" font-size="20" text-anchor="middle" style="white-space:pre" transform="translate(22.353 229.838)">Lower to HIR</text><g stroke-linecap="round"><path d="M90.506 280.553c.33 4.38 1.58 21.75 1.62 26.17m-2.47-26.62c.17 4.52 1.28 20.51 1.87 24.68" stroke="#000" fill="none"/><path d="M86.936 293.363c1.36 2.79 3.92 7.65 4.63 12.12m-5.23-12.26c1 3.84 3.81 8.5 5.46 11.6" stroke="#000" fill="none"/><path d="M96.136 292.443c-1.99 3.22-2.79 8.41-4.57 13.04m3.97-13.19c-2.39 4.2-2.97 9.2-3.74 12.53" stroke="#000" fill="none"/></g><path d="M21.238 325.406c46.81-2.4 95.67-3.6 144.96.08m-145.06-2.6c39.09.89 76.93 1.39 144.9.61m.95-.52c-1.92 14.76.24 26.74-.32 67.1m-.71-65.46c-.68 25.15.74 50.87 1.34 65.62m-.03 1.19c-35.62-.81-71.32-3.32-146.93-2.94m145.39 1.88c-49.44.42-96.87.06-145.82.06m-.25-.03c2.4-16.64 1.02-33.9 3.12-67.38m-2.46 66.25c.56-22.92-.16-47.78 1.39-65.64" stroke="#000" fill="none" stroke-linecap="round"/><text x="67" y="19" font-family="Virgil, Segoe UI Emoji" font-size="20" text-anchor="middle" style="white-space:pre" transform="translate(26.627 328.636)">Type Checking</text><text x="67" y="47" font-family="Virgil, Segoe UI Emoji" font-size="20" text-anchor="middle" style="white-space:pre" transform="translate(26.627 328.636)">&amp; Inference</text><path d="M18.97 439.479c36.32 2.25 75.42 2.28 150.69.54m-150.73-.71c48.9 1.01 95.01.84 151.43.96m-2.42-1.11c1.75 17.17 1.55 32.2 2.31 46.51m.42-44.83c-.29 15.27-.82 30.59-.13 44.29m1.19 1.51c-41.48-3.54-79.51-3.33-151.49.02m149.99-2.51c-52.21.41-105.84.24-149.5 0m-1.15 2.27c-.68-14.74 1.36-29.28 1.12-47.3m-1.3 46.09c.3-14.49-.13-31.06-.35-44.99" stroke="#000" fill="none" stroke-linecap="round"/><text x="69.5" y="19" font-family="Virgil, Segoe UI Emoji" font-size="20" text-anchor="middle" style="white-space:pre" transform="translate(25.26 448.599)">Lower to MIR</text><g stroke-linecap="round"><path d="M91.41 400.141c.36 4.68 2.11 22.01 2.72 26.47m-1.12-26.98c.2 4.37-.38 20.91-.12 25.14" stroke="#000" fill="none"/><path d="M89.32 411.481c.58 4.33 2.1 6.68 3.96 13.82M88 411.441c1.55 5.58 3.71 10.36 4.23 13.56" stroke="#000" fill="none"/><path d="M98.57 411.411c-1.75 4.26-2.56 6.63-5.29 13.89m3.97-13.93c-1.88 5.67-3.16 10.48-5.02 13.63" stroke="#000" fill="none"/></g><g stroke-linecap="round"><path d="M94.773 488.073c.62 7.13 2.98 34.64 3.75 41.66m-4.65-42.29c.34 7.3 2.75 36.16 3.61 43.5" stroke="#000" fill="none"/><path d="M89.423 511.083c1.29 9.13 5.78 17 6.97 21.73m-7.37-21.21c.53 4.52 3.6 8.03 8.99 19.47" stroke="#000" fill="none"/><path d="M104.183 509.653c-4.54 9.82-5.88 18.26-7.79 23.16m7.39-22.64c-2.85 4.76-3.15 8.59-5.77 20.9" stroke="#000" fill="none"/></g><path d="M11.99 541.642c37.8-1.44 80.34-1.5 171.88-2.55m-173.79.45c36.42 1.47 74.04 2.13 172.08 1.34m-.53-.8c.36 14.64 1.81 32.25-.37 45.84m2.26-45.22c-1.57 13.76-.01 29.93.26 43.45m.88 1.03c-44.84 3.32-89.34 1.61-174.81-1.44m174.14 1.57c-47.8-1.39-95.15-2.04-174.56-.11m-.83.72c.05-14.48 1.07-25.12 1.23-46.55m-.12 44.94c.62-14.72-.91-29.26.02-45.03" stroke="#000" fill="none" stroke-linecap="round"/><text x="77.5" y="19" font-family="Virgil, Segoe UI Emoji" font-size="20" text-anchor="middle" style="white-space:pre" transform="translate(19 548.492)">Borrow Checking</text><text y="18" font-family="Virgil, Segoe UI Emoji" font-size="20" style="white-space:pre" transform="translate(39.709 57.448)">Frontend</text><path d="M324.317 103.75c47.67-1.31 98.81.25 144.26 2.37m-145.26-2.61c58.15 1.92 114.83.61 144.77.2m2.68-1.24c-3.59 17.94.15 36.67-1.58 68.95m-.5-67.39c1.04 20.55.35 41.4-.01 66.93m1-1.83c-57.21.14-109.06.77-146.76.48m145.62-.08c-51.46 2.76-103.12 1.41-145.4.09m1.49-.24c-1.88-14.52-.05-30.08-1.26-64.4m.37 65.17c.22-17.75-.43-35.73-1.41-65.89" stroke="#000" fill="none" stroke-linecap="round"/><text x="49" y="19" font-family="Virgil, Segoe UI Emoji" font-size="20" text-anchor="middle" style="white-space:pre" transform="translate(347.106 109.19)">Lower to </text><text x="49" y="47" font-family="Virgil, Segoe UI Emoji" font-size="20" text-anchor="middle" style="white-space:pre" transform="translate(347.106 109.19)">LLVM IR</text><g stroke-linecap="round"><path d="M396.562 178.212c.11 6.01 2.17 29.1 2.56 34.9m-.82-35.62c-.1 5.68.08 27.48.06 33.64" stroke="#000" fill="none"/><path d="M393.192 195.082c1.71 6.03 3.92 11.88 5.42 14.38m-6.58-15.23c2.54 6.19 5.57 13.36 6.75 17.45" stroke="#000" fill="none"/><path d="M405.272 195.052c-2.91 5.96-5.32 11.81-6.66 14.41m5.49-15.26c-2.06 6.21-3.64 13.39-5.32 17.48" stroke="#000" fill="none"/></g><path d="M319.857 223.01c42.24-.65 80.85-1.94 158.07-2.57m-157.99 1.59c36.53-1.44 73.45-1.13 158.38.18m-.26-1.76c-.78 12 2.08 22.26.67 46.17m-.52-44.04c1.2 15.72-.64 33.33-.12 43.26m-.29 1.63c-57.22-2.58-118.9-1.87-156.63-.54m157.34.02c-50.28.25-101.21-.41-158.02-1.22m1.15-1.2c-2.48-8.07-3.56-17.57-2.19-43.86m.81 45.9c-.02-14.25.37-28.05.6-44.4" stroke="#000" fill="none" stroke-linecap="round"/><text x="71" y="19" font-family="Virgil, Segoe UI Emoji" font-size="20" text-anchor="middle" style="white-space:pre" transform="translate(328.317 230.08)">Pass to LLVM</text><path d="M324.414 320.21c61.29-1.58 119.32-1.75 158.23-1.07m-156.72-.18c44.09-.23 87.66-1.57 157.61-.06m-1.23 1.12c1.6 8.53 1.89 17.45.82 40.43m.22-43.03c-.41 19-.8 35.55-.19 44.75m.08-.26c-63.79 2.65-124.16-.65-159.03.47m159.51-.61c-45.92-.33-89.98.49-159.29 1.45m-.99-1.84c3.03-17.43 3.89-34.12 2.56-43.31m-.66 43.4c-.98-12.98-.92-27.54.63-43.05" stroke="#000" fill="none" stroke-linecap="round"/><text x="65.5" y="19" font-family="Virgil, Segoe UI Emoji" font-size="20" text-anchor="middle" style="white-space:pre" transform="translate(338.694 326.35)">Optimizations</text><g stroke-linecap="round"><path d="M400.606 272.622c.33 6.63.15 34.18.16 41.16m-1.01-42.46c.23 6.65.06 36.05.07 43.44" stroke="#000" fill="none"/><path d="M391.906 295.162c.94 4.61 3.91 11.56 8.14 19.36m-7.94-19.53c1.65 5.38 4.7 11.92 7.83 19.91m6.25-19.71c-2.58 4.74-3.14 11.68-6.14 19.33m6.35-19.5c-2.32 5.29-3.23 11.83-6.46 19.88" stroke="#000" fill="none"/></g><g stroke-linecap="round"><path d="M395.756 367.53c.26 9.14 2.49 45.58 2.94 54.96m-.98-55.66c.02 9.26.05 47.87.03 57.07" stroke="#000" fill="none"/><path d="M389.316 397.59c2.26 9.63 8.07 19.45 9.06 25.74m-10.82-25.38c3.37 7.13 5.81 14.92 10.12 25.41" stroke="#000" fill="none"/><path d="M408.446 397.6c-5 9.56-6.46 19.37-10.07 25.73m8.31-25.37c-2.44 7.31-5.81 15.09-9.01 25.4" stroke="#000" fill="none"/></g><path d="M306.842 431.338c70.87 1.18 143 .23 194.77.4m-194.13.43c37.49-.89 76.57-1.46 194.59-.16m.67 1.35c-2.35 8.51-.45 22.48-1.18 38.09m-.56-39.08c.52 10.73 2.03 22.36 1.43 36.45m.69 2.6c-65.23-1.72-130.39-2.37-196.49-3.75m195.11 2.08c-46.84 1.45-92.8 1.41-195.07.48m2.13-.79c-3.92-13.97-.08-28.27-3.33-37.46m1.74 38.08c.18-8.19.87-16.55.4-38.17" stroke="#000" fill="none" stroke-linecap="round"/><text x="91.5" y="19" font-family="Virgil, Segoe UI Emoji" font-size="20" text-anchor="middle" style="white-space:pre" transform="translate(312.862 436.578)">Emit Machine Code</text><path d="M307.36 533.056c48.9-2.58 92.45-1.33 191-1.34m-189.47 1.41c39.95-1.25 79.79-.58 190.87-.52m.65 2.19c-1.83 23.88 1.42 50.76-.3 63.96m-.67-65.96c.53 14.68.37 30.61.2 66.92m2.27 1.04c-45.96.87-90.9-.43-192.68-.06m191.13-1.82c-45.24 1-89.59-.2-192.2-.08m-.48 1.53c2.29-19.48 2.49-38.3.59-66.73m.13 66.04c.38-25.25-.55-51.53.39-67.12" stroke="#000" fill="none" stroke-linecap="round"/><text x="81.5" y="19" font-family="Virgil, Segoe UI Emoji" font-size="20" text-anchor="middle" style="white-space:pre" transform="translate(322.694 538.376)">Linked &amp; Binary </text><text x="81.5" y="47" font-family="Virgil, Segoe UI Emoji" font-size="20" text-anchor="middle" style="white-space:pre" transform="translate(322.694 538.376)">Formed</text><g stroke-linecap="round"><path d="M400.35 479.381c.69 7.28 4.49 35.64 5.44 42.96m-3.38-44.07c.45 7.54 2.01 38.32 2.52 45.49" stroke="#000" fill="none"/><path d="M396.13 504.151c3.02 8.13 7.89 16.18 10.24 17.78m-10.29-17.71c2.73 4.69 4.75 8.21 8.39 19.03" stroke="#000" fill="none"/><path d="M410.94 503.271c-2.74 8.44-3.61 16.83-4.57 18.66m4.52-18.58c-.55 5.02-1.8 8.74-6.42 19.9" stroke="#000" fill="none"/></g></svg>